# xmcd
#
# Track frame offsets: 
#        150
#        16270
#        34210
#        47078
#        71028
#        84258
#        99140
#        116583
#        134838
#        153938
#
# Disc length: 2257 seconds
#
# Revision: 9
# Processed by: cddbd v1.5.2PL0 Copyright (c) Steve Scherf et al.
# Submitted via: ExactAudioCopyFreeDBPlugin 1.0
#
DISCID=7b08cf0a
DTITLE=The Charlie Daniels Band - A Decade of Hits
DYEAR=1983
DGENRE=Country
TTITLE0=The Devil Went Down to Georgia
TTITLE1=The South's Gonna Do It Again
TTITLE2=Stroker's Theme
TTITLE3=Uneasy Rider
TTITLE4=Let It Roll
TTITLE5=In America
TTITLE6=Still in Saigon
TTITLE7=Long Haired Country Boy
TTITLE8=The Legend of Wooley Swamp
TTITLE9=Everytime I See Him
EXTD=
EXTT0=
EXTT1=
EXTT2=
EXTT3=
EXTT4=
EXTT5=
EXTT6=
EXTT7=
EXTT8=
EXTT9=
PLAYORDER=
